<?xml version="1.0" encoding="utf-8"?>
<!-- Generator: Adobe Illustrator 21.0.0, SVG Export Plug-In . SVG Version: 6.00 Build 0)  -->
<svg version="1.1" id="Layer_1" xmlns="http://www.w3.org/2000/svg" xmlns:xlink="http://www.w3.org/1999/xlink" x="0px" y="0px"
	 viewBox="0 0 2048 2048" style="enable-background:new 0 0 2048 2048;" xml:space="preserve">
<g>
	<g>
		<g>
			<path d="M554.3,1998.1c-5.5,3-11.3,5.4-17.6,7.1c-6.3,1.7-12.8,2.6-19.8,2.6c-11.4,0-21.7-2.2-31.1-6.6
				c-9.4-4.4-17.3-10.2-24-17.5c-6.6-7.3-11.8-15.6-15.4-24.9c-3.7-9.4-5.5-19-5.5-28.9c0-10.1,1.9-19.8,5.7-29.1
				c3.8-9.4,9.1-17.6,16-24.8c6.8-7.2,14.9-12.9,24.3-17.2s19.6-6.4,30.7-6.4c11.4,0,21.7,2.3,31.1,6.8c9.4,4.5,17.3,10.5,24,17.8
				c6.6,7.3,11.7,15.7,15.3,25c3.6,9.4,5.4,18.9,5.4,28.5c0,9.8-1.7,19.1-5.2,28.1c-3.5,8.9-8.4,16.9-14.7,24l22,24.2h-33.2
				L554.3,1998.1z M517.1,1976.3c5.8,0,10.8-0.9,15.1-2.8l-24.6-27.2h33.2l9.5,10.6c2.3-4,4-8.3,5.2-13c1.2-4.6,1.7-9.3,1.7-14
				c0-5.9-0.9-11.6-2.6-17.2c-1.7-5.5-4.3-10.4-7.8-14.7c-3.5-4.2-7.7-7.7-12.6-10.3s-10.7-3.9-17.2-3.9c-6.8,0-12.6,1.3-17.6,4
				c-5,2.7-9.1,6.2-12.5,10.6c-3.4,4.4-5.9,9.4-7.6,14.9c-1.7,5.5-2.5,11.2-2.5,16.9c0,5.9,0.9,11.6,2.6,17.2
				c1.7,5.5,4.3,10.4,7.7,14.7c3.4,4.2,7.6,7.7,12.6,10.3C504.9,1975,510.6,1976.3,517.1,1976.3z"/>
		</g>
		<g>
			<path d="M775.3,1975.6v31.1H667.6v-153.3h105.8v31.1H703v29.8h60.4v28.7H703v32.6H775.3z"/>
		</g>
		<g>
			<path d="M914.8,2008c-11.4,0-21.7-2.2-31.1-6.7c-9.4-4.5-17.3-10.3-24-17.6c-6.6-7.3-11.8-15.6-15.4-24.9
				c-3.7-9.4-5.5-19-5.5-28.9c0-10.1,1.9-19.8,5.7-29.1c3.8-9.4,9.1-17.6,16-24.7c6.8-7.1,14.9-12.8,24.3-17.1
				c9.4-4.2,19.6-6.4,30.7-6.4c11.4,0,21.7,2.2,31.1,6.7c9.4,4.5,17.3,10.4,24,17.7c6.6,7.3,11.7,15.7,15.3,25
				c3.6,9.4,5.4,18.9,5.4,28.5c0,10.1-1.9,19.8-5.7,29.1c-3.8,9.4-9.1,17.6-15.9,24.7c-6.8,7.1-14.8,12.8-24.2,17.2
				C936.1,2005.8,925.8,2008,914.8,2008z M874.8,1930.3c0,5.9,0.9,11.6,2.6,17.2c1.7,5.5,4.3,10.5,7.7,14.8
				c3.4,4.3,7.6,7.8,12.6,10.4c5,2.6,10.8,3.9,17.3,3.9c6.8,0,12.7-1.4,17.7-4.1c5-2.7,9.2-6.3,12.5-10.7c3.3-4.4,5.8-9.3,7.4-14.9
				c1.7-5.5,2.5-11.2,2.5-16.9c0-5.9-0.9-11.6-2.6-17.2c-1.7-5.5-4.3-10.4-7.8-14.7c-3.5-4.2-7.7-7.6-12.6-10.1
				c-5-2.5-10.7-3.8-17.2-3.8c-6.8,0-12.6,1.3-17.6,4c-5,2.7-9.1,6.2-12.5,10.5c-3.4,4.3-5.9,9.3-7.6,14.8
				C875.7,1918.9,874.8,1924.5,874.8,1930.3z"/>
		</g>
		<g>
			<path d="M1170.1,1998.1c-5.5,3-11.3,5.4-17.6,7.1c-6.3,1.7-12.8,2.6-19.8,2.6c-11.4,0-21.7-2.2-31.1-6.6
				c-9.4-4.4-17.3-10.2-24-17.5c-6.6-7.3-11.8-15.6-15.4-24.9c-3.7-9.4-5.5-19-5.5-28.9c0-10.1,1.9-19.8,5.7-29.1
				c3.8-9.4,9.1-17.6,16-24.8c6.8-7.2,14.9-12.9,24.3-17.2s19.6-6.4,30.7-6.4c11.4,0,21.7,2.3,31.1,6.8c9.4,4.5,17.3,10.5,24,17.8
				c6.6,7.3,11.7,15.7,15.3,25c3.6,9.4,5.4,18.9,5.4,28.5c0,9.8-1.7,19.1-5.2,28.1c-3.5,8.9-8.4,16.9-14.7,24l22,24.2h-33.2
				L1170.1,1998.1z M1133,1976.3c5.8,0,10.8-0.9,15.1-2.8l-24.6-27.2h33.2l9.5,10.6c2.3-4,4-8.3,5.2-13c1.2-4.6,1.7-9.3,1.7-14
				c0-5.9-0.9-11.6-2.6-17.2c-1.7-5.5-4.3-10.4-7.8-14.7c-3.5-4.2-7.7-7.7-12.6-10.3c-5-2.6-10.7-3.9-17.2-3.9
				c-6.8,0-12.6,1.3-17.6,4c-5,2.7-9.1,6.2-12.5,10.6c-3.4,4.4-5.9,9.4-7.6,14.9c-1.7,5.5-2.5,11.2-2.5,16.9
				c0,5.9,0.9,11.6,2.6,17.2c1.7,5.5,4.3,10.4,7.7,14.7c3.4,4.2,7.6,7.7,12.6,10.3C1120.8,1975,1126.5,1976.3,1133,1976.3z"/>
		</g>
		<g>
			<path d="M1391.2,1975.6v31.1h-107.7v-153.3h105.8v31.1h-70.4v29.8h60.4v28.7h-60.4v32.6H1391.2z"/>
		</g>
		<g>
			<path d="M1530.7,2008c-11.4,0-21.7-2.2-31.1-6.7c-9.4-4.5-17.3-10.3-24-17.6c-6.6-7.3-11.8-15.6-15.4-24.9
				c-3.7-9.4-5.5-19-5.5-28.9c0-10.1,1.9-19.8,5.7-29.1c3.8-9.4,9.1-17.6,16-24.7c6.8-7.1,14.9-12.8,24.3-17.1
				c9.4-4.2,19.6-6.4,30.7-6.4c11.4,0,21.7,2.2,31.1,6.7c9.4,4.5,17.3,10.4,24,17.7c6.6,7.3,11.7,15.7,15.3,25s5.4,18.9,5.4,28.5
				c0,10.1-1.9,19.8-5.7,29.1c-3.8,9.4-9.1,17.6-15.9,24.7c-6.8,7.1-14.8,12.8-24.2,17.2C1552,2005.8,1541.7,2008,1530.7,2008z
				 M1490.7,1930.3c0,5.9,0.9,11.6,2.6,17.2c1.7,5.5,4.3,10.5,7.7,14.8c3.4,4.3,7.6,7.8,12.6,10.4c5,2.6,10.8,3.9,17.3,3.9
				c6.8,0,12.7-1.4,17.7-4.1c5-2.7,9.2-6.3,12.5-10.7c3.3-4.4,5.8-9.3,7.5-14.9c1.7-5.5,2.5-11.2,2.5-16.9c0-5.9-0.9-11.6-2.6-17.2
				c-1.7-5.5-4.3-10.4-7.8-14.7c-3.5-4.2-7.7-7.6-12.6-10.1c-5-2.5-10.7-3.8-17.2-3.8c-6.8,0-12.6,1.3-17.6,4
				c-5,2.7-9.1,6.2-12.5,10.5c-3.4,4.3-5.9,9.3-7.6,14.8C1491.5,1918.9,1490.7,1924.5,1490.7,1930.3z"/>
		</g>
	</g>
	<g>
		<path d="M1479.5,1416.6L1206,989.7c-8.7-13.5-26.5-17.7-40.3-9.5c-14.4,8.6-18.9,27.3-9.9,41.5l271.1,428.3
			c8.5,13.5,26.2,17.9,40.1,9.9l2.4-1.4C1484.1,1449.9,1488.7,1430.9,1479.5,1416.6z"/>
		<path d="M1221.4,1224.2c-15.8-24.6-53.8-14.6-55.5,14.5v0c-0.4,6.3,1.2,12.5,4.6,17.9l157.4,249.3c8.7,13.7,26.6,18.1,40.6,10
			l1.7-1c14.9-8.6,19.6-27.9,10.3-42.4L1221.4,1224.2z"/>
		<g>
			<path d="M1520.9,1229.1c42.4-24,68.9-69.2,69.4-117.9l4.1-498.2c0.4-48.7-25.4-94.3-67.4-119l-429.4-252.7
				c-20.9-12.3-44.9-18.8-69.4-18.8c-23.6,0-47,6.1-67.4,17.7L527.2,485.8c-42.4,24-69,69.2-69.4,117.9l-4.1,498.2
				c-0.4,48.7,25.4,94.3,67.4,119l429.4,252.7c20.9,12.3,44.9,18.8,69.4,18.8c23.6,0,47-6.1,67.4-17.7l101.4-57.5l0,0
				c13.9-7.9,18.4-25.7,9.8-39.2l-3.9-6.2c-8.1-12.8-24.8-16.8-37.8-9.1l-3.9,2.3l-96.7,54.8c-11,6.2-23.6,9.5-36.3,9.5
				c-13.2,0-26.1-3.5-37.4-10.1l-429.4-252.7c-22.6-13.3-36.5-37.9-36.3-64.1l4.1-498.2c0.2-26.2,14.5-50.6,37.4-63.5l433.5-245.6
				c11-6.2,23.6-9.5,36.3-9.5c13.2,0,26.1,3.5,37.4,10.1l429.4,252.7c22.6,13.3,36.5,37.9,36.3,64.1l-4.1,498.2
				c-0.2,26.2-13.8,52.7-36.6,65.6l-61,36c-13.6,8-17.9,25.8-9.3,39.1l1.9,2.9c8,12.4,24.3,16.5,37.1,9.3L1520.9,1229.1z"/>
			<path d="M1674,391.6L1111.8,63.9c-52-30.3-116.7-30.6-168.9-0.7L377.9,386.3c-52.2,29.9-84.8,85.8-85.1,146l-2.7,650.8
				c-0.2,60.2,31.9,116.4,83.9,146.6l562.2,327.7c26.2,15.3,55.6,22.9,85.1,22.9c29,0,58-7.4,83.9-22.2l177.3-99.9
				c12.6-7.1,15.6-23.1,7.7-35.2c-0.1-0.1-0.1-0.2-0.2-0.3l-4.8-7.5c-6.9-10.9-21.2-14.5-32.5-8.1L1076.5,1608
				c-34.4,19.7-77,19.5-111.2-0.5l-550.2-320.7c-41.8-24.4-67.4-69.2-67.2-117.5l2.6-636.8c0.2-39.6,21.6-76.4,56-96.1l564.9-323.1
				c17.1-9.8,36.1-14.6,55.2-14.6c19.4,0,38.8,5,56,15.1l562.2,327.7c34.2,19.9,55.4,56.9,55.2,96.5l-2.7,650.8
				c-0.2,39.6-21.6,76.4-56,96.1l-124.2,71c-12,6.9-15.8,22.4-8.4,34c0,0,3.4,5.4,3.9,6.4c6.2,12.6,21,18.2,33.1,11.1l124.2-72.5
				c52.2-29.9,84.8-85.8,85.1-145.9l2.7-650.8C1758.1,478.1,1726,421.9,1674,391.6z"/>
		</g>
	</g>
</g>
</svg>
